<svg width="24" height="24" viewBox="0 0 24 24" fill="none" xmlns="http://www.w3.org/2000/svg">
<path d="M12 0.5C18.3513 0.5 23.5 5.64873 23.5 12C23.5 18.3513 18.3513 23.5 12 23.5C5.64873 23.5 0.5 18.3513 0.5 12C0.5 5.64873 5.64873 0.5 12 0.5Z" fill="#F9F1FE"/>
<path d="M12 0.5C18.3513 0.5 23.5 5.64873 23.5 12C23.5 18.3513 18.3513 23.5 12 23.5C5.64873 23.5 0.5 18.3513 0.5 12C0.5 5.64873 5.64873 0.5 12 0.5Z" stroke="#E3CCF4"/>
<path d="M15.0531 4C15.65 4 16.0812 4.57187 15.9156 5.14375L14.2437 11H16.9062C17.5094 11 17.9969 11.4875 17.9969 12.0906C17.9969 12.4125 17.8562 12.7156 17.6125 12.9219L9.52812 19.7875C9.36562 19.925 9.15938 20 8.94688 20C8.35 20 7.91875 19.4281 8.08437 18.8562L9.75625 13H7.05625C6.47188 13 6 12.5281 6 11.9469C6 11.6375 6.13437 11.3469 6.36875 11.1469L14.4719 4.21563C14.6344 4.075 14.8406 4 15.0531 4ZM13.925 6.65625L8.2625 11.5H10.75C10.9844 11.5 11.2062 11.6094 11.35 11.7969C11.4938 11.9844 11.5375 12.2281 11.4719 12.4531L10.0719 17.3594L15.7969 12.5H13.25C13.0156 12.5 12.7938 12.3906 12.65 12.2031C12.5062 12.0156 12.4625 11.7719 12.5281 11.5469L13.925 6.65625Z" fill="#793AAF"/>
</svg>
